Exact Audio Copy V0.99 prebeta 4 from 23. January 2008

EAC 抓取日志文件从20. 二月 2013, 12:24

曹燕珍 钱曼华 王宝珍 / 名人百集 曹燕珍 钱曼华 王宝珍

使用驱动器  ：hp      DVDRAM GT30L   Adapter: 3  ID: 0

读取模式     : 保护
使用精确流   : 是
废除音频缓冲 : 是
使用 C2 指针 : 否

读取偏移校正                   : 0
读取 Lead-In 和 Lead-Out       : 否
用静音填充抓取中丢失偏移的采样 : 是
去除首尾静音块                 : 否
在 CRC 计算中使用了空样本      : 是
已用接口                       : Win NT 及 2000 本地 Win32 接口

所用输出格式 : 内部 WAV 函数
样本格式     : 44.100 Hz;16 Bit;立体声


被抓轨 CD 的 TOC

     音轨 |   开始   |   长度   | 起始扇区 | 结尾扇区 
    --------------------------------------------------
       1  |  0:00.00 |  4:47.30 |       0  |   21554  
       2  |  4:47.30 |  3:48.30 |   21555  |   38684  
       3  |  8:35.60 |  2:42.57 |   38685  |   50891  
       4  | 11:18.42 |  3:42.18 |   50892  |   67559  
       5  | 15:00.60 |  4:48.45 |   67560  |   89204  
       6  | 19:49.30 |  3:39.27 |   89205  |  105656  
       7  | 23:28.57 |  3:17.55 |  105657  |  120486  
       8  | 26:46.37 |  3:04.65 |  120487  |  134351  
       9  | 29:51.27 |  4:42.03 |  134352  |  155504  
      10  | 34:33.30 |  3:58.37 |  155505  |  173391  
      11  | 38:31.67 |  4:48.48 |  173392  |  195039  
      12  | 43:20.40 |  3:46.52 |  195040  |  212041  
      13  | 47:07.17 |  5:16.33 |  212042  |  235774  
      14  | 52:23.50 |  2:46.15 |  235775  |  248239  
      15  | 55:09.65 |  3:37.50 |  248240  |  264564  


范围状态及错误

已选择范围

     文件名 D:\行板如歌原抓\名人百集 曹燕珍 钱曼华 王宝珍.wav

     峰值电平 100.0 %
     范围质量 99.9 %
     复制 CRC F80FE8A7
     复制成功

没有错误发生

状态报告结尾
